<svg id="Layer_7" data-name="Layer 7" xmlns="http://www.w3.org/2000/svg" viewBox="0 0 745 592"><defs><style>.cls-1{fill:#fff;}</style></defs><title>Artboard 2</title><path class="cls-1" d="M517.38,115.3l-76.82,22.36a20,20,0,0,1-5.59.8q-.64,0-1.27,0L223.88,125c-25.85,31.65-45.43,71.36-56.15,115.9,154.52-46.7,315.66-58.93,407-25.1C561.95,177,542.17,142.63,517.38,115.3Z"/><path class="cls-1" d="M477.81,355.05c.72,1.38,1.47,2.77,2.13,4.2.73,1.74,1.47,3.5,2.12,5.29s1.28,3.61,1.73,5.48.93,3.73,1.28,5.63a84.19,84.19,0,0,1,1.21,11.53c0,1,0,1.94,0,2.91s0,1.94-.09,2.91c-.17,1.93-.24,3.87-.54,5.79a74.88,74.88,0,0,1-19,40.79,67.66,67.66,0,0,1-17.33,13.52c-1.63.83-3.26,1.63-4.91,2.36s-3.38,1.33-5.09,1.88-3.51,1-5.25,1.37a50.39,50.39,0,0,1-5.45.71l-1.11-1.66a93.69,93.69,0,0,0,14.16-12.27,91.47,91.47,0,0,0,19.77-31.31,81.08,81.08,0,0,0,4.42-18,78.3,78.3,0,0,0,.32-18.5,83.82,83.82,0,0,0-4-18.11,88.52,88.52,0,0,0-7.82-16.91,105.1,105.1,0,0,0-9.16-13.22c-12.66-11.05-31.51-7.36-51.85,11.13-18.94,17.22-148.11,31.87-231.06,29.66,7.47,49.31,25.6,93.88,50.86,130.13,58.73,84.3,97.38,91.25,161.69,91.25,108,0,197.46-99.41,213.69-229.37C556.92,369.43,507.53,364.74,477.81,355.05Z"/><circle class="cls-1" cx="308.87" cy="301.32" r="30"/><circle class="cls-1" cx="490.5" cy="293.22" r="30"/><path class="cls-1" d="M173.45,284a30,30,0,0,0-20-28.29V100.49l281.52,18L745,28.23,310,.46,0,90.69l133.45,8.52V255.68a30,30,0,0,0-2.8,55.42L123.87,354h36.84l-4.51-42.88A30,30,0,0,0,173.45,284Z"/></svg>